<svg xmlns="http://www.w3.org/2000/svg" viewBox="0 0 32 23.342">
  <defs>
    <style>
      .cls-1 {
        fill: #3156a6;
      }

      .cls-2 {
        fill: #f0f0f7;
      }
    </style>
  </defs>
  <g id="Groupe_1741" data-name="Groupe 1741" transform="translate(-921 -830)">
    <path id="Tracé_1218" data-name="Tracé 1218" class="cls-1" d="M26.732,13.226a3.994,3.994,0,1,0-4.8,6.292,4.727,4.727,0,0,1-3.361,1.767,4.848,4.848,0,0,1-4.734-2.432,4.783,4.783,0,0,1-.326-3.3,10.419,10.419,0,0,1,1.828-3.772c.254-.35.531-.709.837-1.067,2.444-2.9,1.892-5.35,1.345-6.554-1.1-2.407-4.054-4.13-7.174-4.183a7.592,7.592,0,0,0-3.7.853,6.769,6.769,0,0,0-.918.6A3.99,3.99,0,1,0,7.247,2.8,5.447,5.447,0,0,1,10.3,1.982c2.335.04,4.593,1.3,5.366,3.011.616,1.353.25,2.882-1.051,4.424-.338.4-.648.8-.938,1.2a12.626,12.626,0,0,0-2.142,4.509,6.806,6.806,0,0,0,.5,4.658,6.837,6.837,0,0,0,6.091,3.539c.2,0,.4-.008.6-.024a6.773,6.773,0,0,0,5.286-3.253,3.993,3.993,0,0,0,2.713-6.816Z" transform="translate(921.1 830.024)"/>
    <path id="Tracé_1187" data-name="Tracé 1187" class="cls-2" d="M13.266-4.136H8.538V.58H6.982V-4.136H2.266V-5.7H6.982V-10.42H8.538V-5.7h4.728Z" transform="translate(942.58 835.734) rotate(90)"/>
  </g>
</svg>
