<svg xmlns="http://www.w3.org/2000/svg" viewBox="0 0 230 12.482">
  <defs>
    <style>
      .cls-1 {
        fill: #fff;
      }
    </style>
  </defs>
  <g id="Groupe_1326" data-name="Groupe 1326" transform="translate(8750.001 -1555)">
    <g id="Groupe_1203" data-name="Groupe 1203" transform="translate(-8720.547 1555.032)">
      <path id="Tracé_1102" data-name="Tracé 1102" class="cls-1" d="M1675.87,154.9a5.494,5.494,0,0,1-2.07-1.051l.764-1.751a6.083,6.083,0,0,0,1.815.955,6.469,6.469,0,0,0,2.165.382,3.743,3.743,0,0,0,2.006-.446,1.309,1.309,0,0,0,.669-1.146,1.091,1.091,0,0,0-.382-.86,2.382,2.382,0,0,0-.923-.509c-.382-.127-.892-.255-1.56-.414a17.742,17.742,0,0,1-2.229-.669,3.925,3.925,0,0,1-1.465-1.019,2.722,2.722,0,0,1-.6-1.879,3.283,3.283,0,0,1,.541-1.815,3.569,3.569,0,0,1,1.624-1.306,6.7,6.7,0,0,1,2.675-.478,8.252,8.252,0,0,1,2.165.287,6.111,6.111,0,0,1,1.847.8l-.7,1.751a6.8,6.8,0,0,0-1.656-.7,6.159,6.159,0,0,0-1.656-.255,3.62,3.62,0,0,0-1.974.446,1.4,1.4,0,0,0-.637,1.178.985.985,0,0,0,.382.828,2.88,2.88,0,0,0,.923.509c.382.127.892.255,1.56.414a14.516,14.516,0,0,1,2.2.637,3.925,3.925,0,0,1,1.465,1.019,2.638,2.638,0,0,1,.605,1.847,3.284,3.284,0,0,1-.541,1.815,3.616,3.616,0,0,1-1.656,1.274,6.7,6.7,0,0,1-2.675.478A6.384,6.384,0,0,1,1675.87,154.9Z" transform="translate(-1673.8 -142.9)"/>
      <path id="Tracé_1103" data-name="Tracé 1103" class="cls-1" d="M1716.921,154.659a5.861,5.861,0,0,1-2.293-2.2,6.538,6.538,0,0,1,0-6.369,5.721,5.721,0,0,1,2.324-2.2,6.668,6.668,0,0,1,3.28-.8,6.833,6.833,0,0,1,2.707.509,5.415,5.415,0,0,1,2.07,1.5l-1.433,1.369a4.135,4.135,0,0,0-3.216-1.4,4.709,4.709,0,0,0-2.229.541,3.647,3.647,0,0,0-1.528,1.5,4.17,4.17,0,0,0-.541,2.2,4.582,4.582,0,0,0,.541,2.2,4.054,4.054,0,0,0,1.528,1.5,4.709,4.709,0,0,0,2.229.541,4.164,4.164,0,0,0,3.216-1.433l1.433,1.369a5.415,5.415,0,0,1-2.07,1.5,6.833,6.833,0,0,1-2.707.509A7.489,7.489,0,0,1,1716.921,154.659Z" transform="translate(-1701.063 -143.036)"/>
      <path id="Tracé_1104" data-name="Tracé 1104" class="cls-1" d="M1761.1,143.5h2.229v12.037H1761.1Z" transform="translate(-1733.301 -143.309)"/>
      <path id="Tracé_1105" data-name="Tracé 1105" class="cls-1" d="M1792.812,153.658v1.879H1783.8V143.5h8.789v1.879h-6.56V148.5h5.827v1.847h-5.827v3.312Z" transform="translate(-1748.773 -143.309)"/>
      <path id="Tracé_1106" data-name="Tracé 1106" class="cls-1" d="M1836,143.5v12.037h-1.847l-6.623-8.152v8.152H1825.3V143.5h1.847l6.623,8.152V143.5Z" transform="translate(-1777.058 -143.309)"/>
      <path id="Tracé_1107" data-name="Tracé 1107" class="cls-1" d="M1874.921,154.659a5.862,5.862,0,0,1-2.293-2.2,6.538,6.538,0,0,1,0-6.369,5.72,5.72,0,0,1,2.325-2.2,6.668,6.668,0,0,1,3.28-.8,6.832,6.832,0,0,1,2.707.509,5.416,5.416,0,0,1,2.07,1.5l-1.433,1.369a4.135,4.135,0,0,0-3.216-1.4,4.708,4.708,0,0,0-2.229.541,3.648,3.648,0,0,0-1.528,1.5,4.17,4.17,0,0,0-.541,2.2,4.581,4.581,0,0,0,.541,2.2,4.054,4.054,0,0,0,1.528,1.5,4.708,4.708,0,0,0,2.229.541,4.164,4.164,0,0,0,3.216-1.433l1.433,1.369a5.416,5.416,0,0,1-2.07,1.5,6.832,6.832,0,0,1-2.707.509A7.488,7.488,0,0,1,1874.921,154.659Z" transform="translate(-1808.751 -143.036)"/>
      <path id="Tracé_1108" data-name="Tracé 1108" class="cls-1" d="M1928.111,153.658v1.879H1919.1V143.5h8.789v1.879h-6.56V148.5h5.827v1.847h-5.827v3.312Z" transform="translate(-1840.99 -143.309)"/>
      <path id="Tracé_1109" data-name="Tracé 1109" class="cls-1" d="M1979.78,145.479h-3.98V143.6h10.221v1.879h-3.98v10.158h-2.229V145.479Z" transform="translate(-1879.635 -143.377)"/>
      <path id="Tracé_1110" data-name="Tracé 1110" class="cls-1" d="M2026.465,155.537,2024.013,152c-.1,0-.255.032-.478.032h-2.707v3.5H2018.6V143.5h4.968a6.672,6.672,0,0,1,2.738.509,3.8,3.8,0,0,1,2.388,3.757,4,4,0,0,1-.669,2.325,3.877,3.877,0,0,1-1.911,1.465l2.77,3.948h-2.42Zm-.8-9.521a3.446,3.446,0,0,0-2.229-.6h-2.611v4.808h2.611a3.444,3.444,0,0,0,2.229-.637,2.179,2.179,0,0,0,.764-1.783A2.277,2.277,0,0,0,2025.669,146.016Z" transform="translate(-1908.806 -143.309)"/>
      <path id="Tracé_1111" data-name="Tracé 1111" class="cls-1" d="M2063.952,154.523a5.973,5.973,0,0,1-3.152-5.413,6.329,6.329,0,0,1,.828-3.184,6.017,6.017,0,0,1,2.324-2.229,6.792,6.792,0,0,1,3.312-.8,6.705,6.705,0,0,1,3.312.8,6.173,6.173,0,0,1,2.324,2.2,6.02,6.02,0,0,1,.828,3.184,6.326,6.326,0,0,1-.828,3.184,5.721,5.721,0,0,1-2.324,2.2,6.791,6.791,0,0,1-3.312.8A6.421,6.421,0,0,1,2063.952,154.523Zm5.477-1.72a3.918,3.918,0,0,0,1.528-1.528,4.13,4.13,0,0,0,.542-2.165,4.456,4.456,0,0,0-.542-2.165,4.14,4.14,0,0,0-1.528-1.528,4.6,4.6,0,0,0-4.331,0,3.917,3.917,0,0,0-1.529,1.528,4.132,4.132,0,0,0-.541,2.165,4.456,4.456,0,0,0,.541,2.165,4.139,4.139,0,0,0,1.529,1.528,4.456,4.456,0,0,0,2.165.541A4.132,4.132,0,0,0,2069.429,152.8Z" transform="translate(-1937.569 -142.9)"/>
      <path id="Tracé_1112" data-name="Tracé 1112" class="cls-1" d="M2112.88,145.479h-3.98V143.6h10.222v1.879h-3.98v10.158h-2.229V145.479Z" transform="translate(-1970.352 -143.377)"/>
      <path id="Tracé_1113" data-name="Tracé 1113" class="cls-1" d="M2151.38,145.479h-3.98V143.6h10.221v1.879h-3.98v10.158h-2.229V145.479Z" transform="translate(-1996.593 -143.377)"/>
      <path id="Tracé_1114" data-name="Tracé 1114" class="cls-1" d="M2199.211,153.658v1.879H2190.2V143.5h8.789v1.879h-6.56V148.5h5.827v1.847h-5.827v3.312Z" transform="translate(-2025.764 -143.309)"/>
      <path id="Tracé_1115" data-name="Tracé 1115" class="cls-1" d="M2239.565,155.537,2237.113,152c-.1,0-.255.032-.478.032h-2.707v3.5H2231.7V143.5h4.968a6.673,6.673,0,0,1,2.739.509,3.8,3.8,0,0,1,2.388,3.757,4,4,0,0,1-.669,2.325,3.878,3.878,0,0,1-1.911,1.465l2.77,3.948h-2.42Zm-.8-9.521a3.446,3.446,0,0,0-2.229-.6h-2.611v4.808h2.611a3.444,3.444,0,0,0,2.229-.637,2.463,2.463,0,0,0,0-3.566Z" transform="translate(-2054.05 -143.309)"/>
      <path id="Tracé_1116" data-name="Tracé 1116" class="cls-1" d="M2275.47,154.9a5.493,5.493,0,0,1-2.07-1.051l.764-1.751a6.08,6.08,0,0,0,1.815.955,6.47,6.47,0,0,0,2.165.382,3.743,3.743,0,0,0,2.006-.446,1.309,1.309,0,0,0,.669-1.146,1.09,1.09,0,0,0-.382-.86,2.379,2.379,0,0,0-.923-.509c-.382-.127-.892-.255-1.56-.414a17.754,17.754,0,0,1-2.229-.669,3.926,3.926,0,0,1-1.465-1.019,2.722,2.722,0,0,1-.6-1.879,3.283,3.283,0,0,1,.541-1.815,3.57,3.57,0,0,1,1.624-1.306,6.7,6.7,0,0,1,2.675-.478,8.253,8.253,0,0,1,2.166.287,6.106,6.106,0,0,1,1.847.8l-.7,1.751a6.8,6.8,0,0,0-1.656-.7,6.159,6.159,0,0,0-1.656-.255,3.62,3.62,0,0,0-1.974.446,1.328,1.328,0,0,0-.637,1.178.985.985,0,0,0,.382.828,2.879,2.879,0,0,0,.923.509c.382.127.892.255,1.56.414a14.518,14.518,0,0,1,2.2.637,3.926,3.926,0,0,1,1.465,1.019,2.637,2.637,0,0,1,.6,1.847,3.285,3.285,0,0,1-.541,1.815,3.616,3.616,0,0,1-1.656,1.274,6.7,6.7,0,0,1-2.675.478A6.322,6.322,0,0,1,2275.47,154.9Z" transform="translate(-2082.471 -142.9)"/>
    </g>
    <g id="Groupe_1204" data-name="Groupe 1204" transform="translate(-8750.001 1555)">
      <path id="Tracé_1117" data-name="Tracé 1117" class="cls-1" d="M1608.059,155.255l-5.7-12.355v9.043h-.159Z" transform="translate(-1595.545 -142.868)"/>
      <path id="Tracé_1118" data-name="Tracé 1118" class="cls-1" d="M1587.159,151.875V142.8c-1.465,3.057-5.859,12.228-5.859,12.387l6.018-3.312Z" transform="translate(-1581.3 -142.8)"/>
    </g>
  </g>
</svg>
