<svg xmlns="http://www.w3.org/2000/svg" viewBox="0 0 24 19.268">
  <defs>
    <style>
      .cls-1 {
        fill: #bcbccb;
      }
    </style>
  </defs>
  <path id="Tracé_1189" data-name="Tracé 1189" class="cls-1" d="M22.642,6.837V4.415l-9.634,6.028L3.374,4.415V6.837l9.634,5.972Zm0-4.845a2.231,2.231,0,0,1,1.662.732,2.367,2.367,0,0,1,.7,1.69V18.837a2.367,2.367,0,0,1-.7,1.69,2.231,2.231,0,0,1-1.662.732H3.374a2.231,2.231,0,0,1-1.662-.732,2.367,2.367,0,0,1-.7-1.69V4.415a2.367,2.367,0,0,1,.7-1.69,2.231,2.231,0,0,1,1.662-.732Z" transform="translate(-1.008 -1.992)"/>
</svg>
