<svg xmlns="http://www.w3.org/2000/svg" viewBox="0 0 23.5 16">
  <defs>
    <style>
      .cls-1 {
        fill: #fff;
      }
    </style>
  </defs>
  <path id="Tracé_1242" data-name="Tracé 1242" class="cls-1" d="M11.592-35.687a3.075,3.075,0,0,1,2.25-.95,3.075,3.075,0,0,1,2.25.95,3.075,3.075,0,0,1,.95,2.25,3.075,3.075,0,0,1-.95,2.25,3.075,3.075,0,0,1-2.25.95,3.075,3.075,0,0,1-2.25-.95,3.075,3.075,0,0,1-.95-2.25A3.075,3.075,0,0,1,11.592-35.687Zm-1.525,6.025a5.149,5.149,0,0,0,3.775,1.575,5.149,5.149,0,0,0,3.775-1.575,5.149,5.149,0,0,0,1.575-3.775,5.149,5.149,0,0,0-1.575-3.775,5.149,5.149,0,0,0-3.775-1.575,5.149,5.149,0,0,0-3.775,1.575,5.149,5.149,0,0,0-1.575,3.775A5.149,5.149,0,0,0,10.067-29.662ZM6.692-39.238a12.334,12.334,0,0,1,7.15-2.2,12.334,12.334,0,0,1,7.15,2.2,12.3,12.3,0,0,1,4.6,5.8,12.3,12.3,0,0,1-4.6,5.8,12.334,12.334,0,0,1-7.15,2.2,12.334,12.334,0,0,1-7.15-2.2,12.3,12.3,0,0,1-4.6-5.8A12.3,12.3,0,0,1,6.692-39.238Z" transform="translate(-2.092 41.437)"/>
</svg>
