<svg xmlns="http://www.w3.org/2000/svg" viewBox="0 0 14.985 28">
  <defs>
    <style>
      .cls-1 {
        fill: #fff;
      }
    </style>
  </defs>
  <path id="Tracé_1252" data-name="Tracé 1252" class="cls-1" d="M0,18.926c.1-.03.2-.07.3-.1.16-.045.2-.14.2-.3q-.008-2.254,0-4.5c0-.6-.1-.436.456-.681l4.372-1.938c.065-.03.13-.045.23-.08v5.314c.24-.09.446-.165.691-.26v5.339c.391-.255.731-.466,1.057-.7.05-.04.045-.175.045-.27V6.521c0-.446.005-.9-.005-1.342A.311.311,0,0,1,7.5,4.868c1.027-.646,2.043-1.3,3.065-1.953,1.052-.676,2.109-1.352,3.16-2.023.406-.26.821-.516,1.257-.791v28H0S0,22.092,0,18.926ZM14.073,5.94a.506.506,0,0,0-.105.035q-1.255.811-2.5,1.628a.322.322,0,0,0-.115.23c-.01.616-.005,1.227-.005,1.843,0,.065.015.13.02.19a.331.331,0,0,0,.075,0c.846-.526,1.688-1.052,2.529-1.588a.364.364,0,0,0,.12-.255c.01-.631.005-1.262.005-1.888A1.519,1.519,0,0,0,14.073,5.94Zm-2.725.235a.567.567,0,0,0,.11-.03c.836-.521,1.678-1.042,2.509-1.568a.309.309,0,0,0,.12-.23c.01-.636.005-1.277.005-1.913a1.865,1.865,0,0,0-.035-.23c-.907.586-1.773,1.147-2.639,1.713a.181.181,0,0,0-.07.135C11.349,4.753,11.349,5.454,11.349,6.175Zm0,14.855a1.378,1.378,0,0,0,.15-.065c.811-.506,1.623-1.012,2.429-1.533a.421.421,0,0,0,.16-.306c.015-.616.01-1.227.005-1.843,0-.07-.015-.145-.02-.22-.05.015-.07.015-.08.025-.851.546-1.7,1.092-2.554,1.648a.212.212,0,0,0-.085.15C11.349,19.587,11.349,20.289,11.349,21.03Zm2.75-7.693a1.449,1.449,0,0,0-.175.085c-.821.531-1.648,1.062-2.464,1.6a.32.32,0,0,0-.1.235c-.01.351-.005.7-.005,1.052v1a.812.812,0,0,0,.14-.05c.816-.511,1.638-1.017,2.449-1.538a.427.427,0,0,0,.155-.285c.02-.235.005-.476.005-.716C14.1,14.279,14.1,13.833,14.1,13.337Zm0-3.741c-.907.586-1.743,1.137-2.584,1.678a.319.319,0,0,0-.165.311c.005.606,0,1.212.005,1.818,0,.065.015.13.02.23.891-.556,1.748-1.092,2.594-1.633a.337.337,0,0,0,.12-.255c.015-.431.005-.861.005-1.292C14.1,10.182,14.1,9.921,14.1,9.6Zm-3.506,5.975c-.8.516-1.548,1-2.289,1.492a.252.252,0,0,0-.075.185c-.005.636,0,1.277,0,1.913a.472.472,0,0,0,.03.09.558.558,0,0,0,.1-.035c.711-.441,1.422-.881,2.129-1.332a.243.243,0,0,0,.1-.17C10.593,17.023,10.593,16.327,10.593,15.571ZM8.219,22.988c.13-.065.215-.105.3-.15.616-.386,1.222-.786,1.843-1.157a.428.428,0,0,0,.24-.436c-.01-.561-.005-1.117-.005-1.678,0-.075-.01-.15-.015-.22a.3.3,0,0,0-.07,0c-.731.471-1.462.942-2.184,1.417a.328.328,0,0,0-.1.24c-.01.441-.005.876-.005,1.317C8.219,22.527,8.219,22.733,8.219,22.988Zm0-14.835c.1-.04.13-.045.165-.065.681-.426,1.367-.851,2.043-1.287a.4.4,0,0,0,.155-.285c.015-.521.005-1.037.005-1.558V4.487a1.238,1.238,0,0,0-.17.075c-.691.446-1.382.891-2.063,1.347a.353.353,0,0,0-.13.25c-.015.285-.005.576-.005.861Zm2.374,3.741c-.07.03-.1.035-.125.05-.7.451-1.392.9-2.078,1.357a.421.421,0,0,0-.16.306c-.015.581-.01,1.162-.005,1.743,0,.065.015.13.02.2a.343.343,0,0,0,.1-.03q1.074-.669,2.144-1.342a.268.268,0,0,0,.1-.2C10.593,13.3,10.593,12.616,10.593,11.895Zm-.005-3.736c-.8.521-1.548,1-2.289,1.492a.287.287,0,0,0-.08.21c-.005.616-.005,1.227,0,1.843a.6.6,0,0,0,.025.13.259.259,0,0,0,.085-.015c.716-.446,1.432-.891,2.149-1.347a.257.257,0,0,0,.105-.17C10.593,9.611,10.588,8.92,10.588,8.158Zm-5.494,14.1c-.551.25-1.082.491-1.6.736a.189.189,0,0,0-.08.15c-.005.621-.005,1.242-.005,1.873a.548.548,0,0,0,.11-.01c.5-.215,1-.431,1.487-.661a.3.3,0,0,0,.115-.225c.01-.551.005-1.1.005-1.653A1.4,1.4,0,0,0,5.093,22.262Zm-2.254.962c-.556.26-1.052.5-1.553.721a.244.244,0,0,0-.17.27c.005.516,0,1.037.005,1.558,0,.075.01.15.015.265.11-.045.19-.07.265-.105.321-.14.641-.29.962-.426.476-.2.476-.2.476-.721ZM3.08,15.6c.571-.25,1.1-.476,1.608-.721.06-.03.1-.155.1-.24.01-.551.005-1.1.005-1.648a1.169,1.169,0,0,0-.03-.2c-.541.25-1.052.481-1.563.726a.22.22,0,0,0-.115.16C3.075,14.3,3.08,14.92,3.08,15.6Zm1.838.536c-.09.03-.135.04-.175.055-.461.215-.922.441-1.387.646a.232.232,0,0,0-.16.25c.005.381,0,.766,0,1.147v.7c.576-.255,1.1-.491,1.628-.731a.171.171,0,0,0,.085-.125C4.923,17.444,4.918,16.808,4.918,16.132ZM1.072,19.9a1.068,1.068,0,0,0,.175-.045c.451-.2.9-.406,1.352-.6a.28.28,0,0,0,.2-.3c-.01-.526-.005-1.052-.005-1.578,0-.075-.015-.145-.025-.26-.566.26-1.092.506-1.613.756a.189.189,0,0,0-.08.15C1.067,18.636,1.072,19.247,1.072,19.9Zm1.768.2c-.581.27-1.107.506-1.628.761-.055.025-.085.145-.085.22-.005.541-.005,1.087-.005,1.628a1.813,1.813,0,0,0,.025.2c.541-.245,1.062-.471,1.573-.711a.24.24,0,0,0,.115-.155C2.84,21.411,2.84,20.784,2.84,20.093Zm.566,1.838c.566-.25,1.092-.471,1.608-.716a.307.307,0,0,0,.105-.235c.01-.561.005-1.117.005-1.678a.819.819,0,0,0-.035-.165c-.536.245-1.052.476-1.563.716a.246.246,0,0,0-.115.18C3.4,20.644,3.406,21.26,3.406,21.931Zm-.756-8.149c-.215.1-.381.17-.546.245s-.331.155-.5.23c-.656.29-.656.29-.656,1.012v1.322c.571-.255,1.1-.491,1.623-.731a.168.168,0,0,0,.075-.13C2.649,15.095,2.649,14.459,2.649,13.783Z" transform="translate(0 -0.1)"/>
</svg>
