<svg xmlns="http://www.w3.org/2000/svg" viewBox="-1109 3372 38 34.253"><defs><style>.a{fill:#3156a6;}</style></defs><g transform="translate(-1522 3209.796)"><path class="a" d="M13.441,12.911a9.187,9.187,0,0,0,6.735,2.81,9.187,9.187,0,0,0,6.735-2.81,9.187,9.187,0,0,0,2.81-6.735,9.187,9.187,0,0,0-2.81-6.735,9.187,9.187,0,0,0-6.735-2.81,9.187,9.187,0,0,0-6.735,2.81,9.187,9.187,0,0,0-2.81,6.735A9.187,9.187,0,0,0,13.441,12.911Zm1.026-25.735H25.885l3.479,3.746h6.066a3.533,3.533,0,0,1,2.631,1.16,3.747,3.747,0,0,1,1.115,2.676V17.594a3.747,3.747,0,0,1-1.115,2.676,3.533,3.533,0,0,1-2.631,1.16H4.922a3.533,3.533,0,0,1-2.631-1.16,3.747,3.747,0,0,1-1.115-2.676V-5.242A3.747,3.747,0,0,1,2.291-7.918a3.533,3.533,0,0,1,2.631-1.16h6.066Zm1.427,23.282A5.839,5.839,0,0,1,14.11,6.176a5.839,5.839,0,0,1,1.784-4.282,6.03,6.03,0,0,1,8.563,0,5.839,5.839,0,0,1,1.784,4.282,5.839,5.839,0,0,1-1.784,4.282,6.03,6.03,0,0,1-8.563,0Z" transform="translate(411.824 175.028)"/></g></svg>