<svg xmlns="http://www.w3.org/2000/svg" viewBox="0 0 29.996 28">
  <defs>
    <style>
      .cls-1 {
        fill: #3156a6;
      }

      .cls-2 {
        fill: #fff;
      }
    </style>
  </defs>
  <g id="Groupe_1502" data-name="Groupe 1502" transform="translate(0 -0.1)">
    <path id="Tracé_1252" data-name="Tracé 1252" class="cls-1" d="M0,18.926c.1-.03.2-.07.3-.1.16-.045.2-.14.2-.3q-.008-2.254,0-4.5c0-.6-.1-.436.456-.681l4.372-1.938c.065-.03.13-.045.23-.08v5.314c.24-.09.446-.165.691-.26v5.339c.391-.255.731-.466,1.057-.7.05-.04.045-.175.045-.27V6.521c0-.446.005-.9-.005-1.342A.311.311,0,0,1,7.5,4.868c1.027-.646,2.043-1.3,3.065-1.953,1.052-.676,2.109-1.352,3.16-2.023.406-.26.821-.516,1.257-.791v28H0S0,22.092,0,18.926ZM14.073,5.94a.506.506,0,0,0-.105.035q-1.255.811-2.5,1.628a.322.322,0,0,0-.115.23c-.01.616-.005,1.227-.005,1.843,0,.065.015.13.02.19a.331.331,0,0,0,.075,0c.846-.526,1.688-1.052,2.529-1.588a.364.364,0,0,0,.12-.255c.01-.631.005-1.262.005-1.888A1.519,1.519,0,0,0,14.073,5.94Zm-2.725.235a.567.567,0,0,0,.11-.03c.836-.521,1.678-1.042,2.509-1.568a.309.309,0,0,0,.12-.23c.01-.636.005-1.277.005-1.913a1.865,1.865,0,0,0-.035-.23c-.907.586-1.773,1.147-2.639,1.713a.181.181,0,0,0-.07.135C11.349,4.753,11.349,5.454,11.349,6.175Zm0,14.855a1.378,1.378,0,0,0,.15-.065c.811-.506,1.623-1.012,2.429-1.533a.421.421,0,0,0,.16-.306c.015-.616.01-1.227.005-1.843,0-.07-.015-.145-.02-.22-.05.015-.07.015-.08.025-.851.546-1.7,1.092-2.554,1.648a.212.212,0,0,0-.085.15C11.349,19.587,11.349,20.289,11.349,21.03Zm2.75-7.693a1.449,1.449,0,0,0-.175.085c-.821.531-1.648,1.062-2.464,1.6a.32.32,0,0,0-.1.235c-.01.351-.005.7-.005,1.052v1a.812.812,0,0,0,.14-.05c.816-.511,1.638-1.017,2.449-1.538a.427.427,0,0,0,.155-.285c.02-.235.005-.476.005-.716C14.1,14.279,14.1,13.833,14.1,13.337Zm0-3.741c-.907.586-1.743,1.137-2.584,1.678a.319.319,0,0,0-.165.311c.005.606,0,1.212.005,1.818,0,.065.015.13.02.23.891-.556,1.748-1.092,2.594-1.633a.337.337,0,0,0,.12-.255c.015-.431.005-.861.005-1.292C14.1,10.182,14.1,9.921,14.1,9.6Zm-3.506,5.975c-.8.516-1.548,1-2.289,1.492a.252.252,0,0,0-.075.185c-.005.636,0,1.277,0,1.913a.472.472,0,0,0,.03.09.558.558,0,0,0,.1-.035c.711-.441,1.422-.881,2.129-1.332a.243.243,0,0,0,.1-.17C10.593,17.023,10.593,16.327,10.593,15.571ZM8.219,22.988c.13-.065.215-.105.3-.15.616-.386,1.222-.786,1.843-1.157a.428.428,0,0,0,.24-.436c-.01-.561-.005-1.117-.005-1.678,0-.075-.01-.15-.015-.22a.3.3,0,0,0-.07,0c-.731.471-1.462.942-2.184,1.417a.328.328,0,0,0-.1.24c-.01.441-.005.876-.005,1.317C8.219,22.527,8.219,22.733,8.219,22.988Zm0-14.835c.1-.04.13-.045.165-.065.681-.426,1.367-.851,2.043-1.287a.4.4,0,0,0,.155-.285c.015-.521.005-1.037.005-1.558V4.487a1.238,1.238,0,0,0-.17.075c-.691.446-1.382.891-2.063,1.347a.353.353,0,0,0-.13.25c-.015.285-.005.576-.005.861Zm2.374,3.741c-.07.03-.1.035-.125.05-.7.451-1.392.9-2.078,1.357a.421.421,0,0,0-.16.306c-.015.581-.01,1.162-.005,1.743,0,.065.015.13.02.2a.343.343,0,0,0,.1-.03q1.074-.669,2.144-1.342a.268.268,0,0,0,.1-.2C10.593,13.3,10.593,12.616,10.593,11.895Zm-.005-3.736c-.8.521-1.548,1-2.289,1.492a.287.287,0,0,0-.08.21c-.005.616-.005,1.227,0,1.843a.6.6,0,0,0,.025.13.259.259,0,0,0,.085-.015c.716-.446,1.432-.891,2.149-1.347a.257.257,0,0,0,.105-.17C10.593,9.611,10.588,8.92,10.588,8.158Zm-5.494,14.1c-.551.25-1.082.491-1.6.736a.189.189,0,0,0-.08.15c-.005.621-.005,1.242-.005,1.873a.548.548,0,0,0,.11-.01c.5-.215,1-.431,1.487-.661a.3.3,0,0,0,.115-.225c.01-.551.005-1.1.005-1.653A1.4,1.4,0,0,0,5.093,22.262Zm-2.254.962c-.556.26-1.052.5-1.553.721a.244.244,0,0,0-.17.27c.005.516,0,1.037.005,1.558,0,.075.01.15.015.265.11-.045.19-.07.265-.105.321-.14.641-.29.962-.426.476-.2.476-.2.476-.721ZM3.08,15.6c.571-.25,1.1-.476,1.608-.721.06-.03.1-.155.1-.24.01-.551.005-1.1.005-1.648a1.169,1.169,0,0,0-.03-.2c-.541.25-1.052.481-1.563.726a.22.22,0,0,0-.115.16C3.075,14.3,3.08,14.92,3.08,15.6Zm1.838.536c-.09.03-.135.04-.175.055-.461.215-.922.441-1.387.646a.232.232,0,0,0-.16.25c.005.381,0,.766,0,1.147v.7c.576-.255,1.1-.491,1.628-.731a.171.171,0,0,0,.085-.125C4.923,17.444,4.918,16.808,4.918,16.132ZM1.072,19.9a1.068,1.068,0,0,0,.175-.045c.451-.2.9-.406,1.352-.6a.28.28,0,0,0,.2-.3c-.01-.526-.005-1.052-.005-1.578,0-.075-.015-.145-.025-.26-.566.26-1.092.506-1.613.756a.189.189,0,0,0-.08.15C1.067,18.636,1.072,19.247,1.072,19.9Zm1.768.2c-.581.27-1.107.506-1.628.761-.055.025-.085.145-.085.22-.005.541-.005,1.087-.005,1.628a1.813,1.813,0,0,0,.025.2c.541-.245,1.062-.471,1.573-.711a.24.24,0,0,0,.115-.155C2.84,21.411,2.84,20.784,2.84,20.093Zm.566,1.838c.566-.25,1.092-.471,1.608-.716a.307.307,0,0,0,.105-.235c.01-.561.005-1.117.005-1.678a.819.819,0,0,0-.035-.165c-.536.245-1.052.476-1.563.716a.246.246,0,0,0-.115.18C3.4,20.644,3.406,21.26,3.406,21.931Zm-.756-8.149c-.215.1-.381.17-.546.245s-.331.155-.5.23c-.656.29-.656.29-.656,1.012v1.322c.571-.255,1.1-.491,1.623-.731a.168.168,0,0,0,.075-.13C2.649,15.095,2.649,14.459,2.649,13.783Z"/>
    <path id="Tracé_1253" data-name="Tracé 1253" class="cls-1" d="M454.7,360.191c-.105-.005-4.973-.01-7.3,0-.245,0-.306-.049-.306-.29.01-3.346.015-6.54.015-9.885V349.7c.15.04.265.065.376.1q3.238,1.029,6.471,2.063c.25.08.5.14.751.215C454.708,354.839,454.7,357.426,454.7,360.191Zm-6.7-4.831c0,.656,0,1.277,0,1.9a.19.19,0,0,0,.11.13c.721.215,1.447.426,2.179.641a.424.424,0,0,0,.035-.11c0-.526.01-1.052,0-1.578,0-.07-.105-.175-.18-.205-.526-.2-1.062-.391-1.593-.581C448.377,355.49,448.207,355.43,448,355.359Zm2.329-.826c0-.616.005-1.182,0-1.743,0-.05-.09-.12-.15-.145-.426-.165-.851-.321-1.277-.476-.285-.105-.576-.2-.9-.311v1.533c0,.461,0,.461.431.591C449.043,354.157,449.659,354.338,450.325,354.533Zm2.9.821c0-.6.005-1.162,0-1.723,0-.055-.085-.13-.145-.15-.491-.185-.987-.361-1.483-.541-.215-.075-.431-.15-.681-.24,0,.656-.005,1.277,0,1.893,0,.05.085.13.145.145.541.165,1.087.326,1.628.481C452.86,355.269,453.03,355.3,453.23,355.354Zm0,3.516c0-.571,0-1.1.005-1.618a.266.266,0,0,0-.21-.3c-.641-.225-1.277-.456-1.913-.681a1.92,1.92,0,0,0-.205-.045c0,.641,0,1.252.005,1.863,0,.055.1.135.165.16.411.13.826.245,1.237.366C452.609,358.695,452.9,358.775,453.23,358.87Z" transform="translate(-424.708 -332.091)"/>
    <path id="Tracé_1254" data-name="Tracé 1254" class="cls-1" d="M320.289,29.81h-6.233s.044-18.489.044-27.91c.1.055.19.1.27.15q2.614,1.705,5.224,3.416a.823.823,0,0,0,.135.1c.491.18.561.546.561,1.037C320.275,14.321,320.289,29.81,320.289,29.81Z" transform="translate(-298.369 -1.71)"/>
    <path id="Tracé_1255" data-name="Tracé 1255" class="cls-2" d="M229.206,116.7a1.521,1.521,0,0,1,.02.2c0,.631.005,1.262-.005,1.888a.337.337,0,0,1-.12.255c-.836.536-1.683,1.062-2.529,1.588a.331.331,0,0,1-.075,0c-.005-.06-.02-.125-.02-.19,0-.616,0-1.227.005-1.843a.3.3,0,0,1,.115-.23c.831-.551,1.668-1.087,2.5-1.628A.506.506,0,0,1,229.206,116.7Z" transform="translate(-215.132 -110.76)"/>
    <path id="Tracé_1256" data-name="Tracé 1256" class="cls-2" d="M226.6,46.072c0-.721,0-1.422.005-2.124a.2.2,0,0,1,.07-.135c.866-.566,1.733-1.127,2.639-1.713a2.187,2.187,0,0,1,.035.23c0,.636.005,1.277,0,1.913a.309.309,0,0,1-.12.23c-.831.531-1.673,1.047-2.509,1.568A.441.441,0,0,1,226.6,46.072Z" transform="translate(-215.251 -39.897)"/>
    <path id="Tracé_1257" data-name="Tracé 1257" class="cls-2" d="M226.6,342.767c0-.741,0-1.442.005-2.144a.2.2,0,0,1,.085-.15c.846-.551,1.7-1.1,2.554-1.648a.372.372,0,0,1,.08-.025,1.8,1.8,0,0,1,.02.22c0,.616.01,1.232-.005,1.843a.439.439,0,0,1-.16.306c-.8.521-1.618,1.022-2.429,1.533A1.371,1.371,0,0,1,226.6,342.767Z" transform="translate(-215.251 -321.737)"/>
    <path id="Tracé_1258" data-name="Tracé 1258" class="cls-2" d="M229.326,264.4v1.382c0,.24.015.481-.005.716a.419.419,0,0,1-.155.285c-.811.521-1.628,1.027-2.449,1.538a.812.812,0,0,1-.14.05v-1c0-.351,0-.7.005-1.052a.34.34,0,0,1,.1-.235c.816-.541,1.643-1.072,2.464-1.6C229.186,264.46,229.231,264.445,229.326,264.4Z" transform="translate(-215.227 -251.063)"/>
    <path id="Tracé_1259" data-name="Tracé 1259" class="cls-2" d="M229.445,189.7v.851c0,.431.005.861-.005,1.292a.374.374,0,0,1-.12.255c-.851.546-1.708,1.077-2.594,1.633-.01-.1-.02-.165-.02-.23,0-.606.005-1.212-.005-1.818a.319.319,0,0,1,.165-.311C227.7,190.837,228.538,190.286,229.445,189.7Z" transform="translate(-215.346 -180.104)"/>
    <path id="Tracé_1260" data-name="Tracé 1260" class="cls-2" d="M166.622,309c0,.756,0,1.447-.005,2.144a.234.234,0,0,1-.1.17q-1.059.669-2.129,1.332a.758.758,0,0,1-.1.035.239.239,0,0,1-.03-.09c0-.636-.005-1.277,0-1.913a.252.252,0,0,1,.075-.185C165.074,310,165.82,309.521,166.622,309Z" transform="translate(-156.029 -293.429)"/>
    <path id="Tracé_1261" data-name="Tracé 1261" class="cls-2" d="M164.076,388v-.666c0-.441,0-.876.005-1.317a.32.32,0,0,1,.1-.24c.721-.481,1.452-.947,2.184-1.417a.3.3,0,0,1,.07,0c.005.07.015.145.015.22,0,.561-.005,1.117.005,1.678a.421.421,0,0,1-.24.436c-.621.371-1.227.771-1.843,1.157A2.12,2.12,0,0,1,164.076,388Z" transform="translate(-155.858 -365.011)"/>
    <path id="Tracé_1262" data-name="Tracé 1262" class="cls-2" d="M164.038,91.271V90.134c0-.285-.01-.576.005-.861a.373.373,0,0,1,.13-.25c.681-.456,1.372-.9,2.063-1.347.04-.025.085-.035.17-.075v.471c0,.521.01,1.037,0,1.558a.419.419,0,0,1-.155.285c-.676.441-1.362.861-2.043,1.287A1.416,1.416,0,0,1,164.038,91.271Z" transform="translate(-155.819 -83.118)"/>
    <path id="Tracé_1263" data-name="Tracé 1263" class="cls-2" d="M166.507,235.6c0,.721.005,1.407-.005,2.088a.268.268,0,0,1-.1.2q-1.067.676-2.144,1.342a.652.652,0,0,1-.1.03,1.429,1.429,0,0,1-.02-.2c0-.581-.01-1.162.005-1.743a.449.449,0,0,1,.16-.306c.686-.461,1.382-.907,2.078-1.357A.761.761,0,0,1,166.507,235.6Z" transform="translate(-155.914 -223.705)"/>
    <path id="Tracé_1264" data-name="Tracé 1264" class="cls-2" d="M166.427,161c0,.761.005,1.452-.005,2.149a.233.233,0,0,1-.105.17c-.711.451-1.432.9-2.149,1.347a.29.29,0,0,1-.085.015.659.659,0,0,1-.025-.13c0-.616-.005-1.227,0-1.843a.3.3,0,0,1,.08-.21C164.884,162,165.63,161.516,166.427,161Z" transform="translate(-155.839 -152.842)"/>
    <path id="Tracé_1265" data-name="Tracé 1265" class="cls-2" d="M69.688,442.6a1.494,1.494,0,0,1,.03.21c0,.551.005,1.1-.005,1.653a.285.285,0,0,1-.115.225c-.491.23-.987.446-1.487.661a.549.549,0,0,1-.11.01c0-.631,0-1.252,0-1.873a.2.2,0,0,1,.08-.15C68.606,443.091,69.137,442.85,69.688,442.6Z" transform="translate(-64.594 -420.338)"/>
    <path id="Tracé_1266" data-name="Tracé 1266" class="cls-2" d="M24.023,461.8v1.558c0,.521,0,.516-.476.721-.321.135-.641.285-.962.426-.075.035-.155.06-.265.105-.005-.11-.015-.19-.015-.265,0-.521.005-1.037-.005-1.558a.255.255,0,0,1,.17-.27C22.971,462.3,23.467,462.06,24.023,461.8Z" transform="translate(-21.183 -438.576)"/>
    <path id="Tracé_1267" data-name="Tracé 1267" class="cls-2" d="M61.476,256.3c0-.681-.005-1.3.005-1.918a.22.22,0,0,1,.115-.16c.511-.24,1.022-.476,1.563-.726a1.887,1.887,0,0,1,.03.2c0,.551.005,1.1-.005,1.648a.323.323,0,0,1-.1.24C62.568,255.829,62.047,256.054,61.476,256.3Z" transform="translate(-58.396 -240.709)"/>
    <path id="Tracé_1268" data-name="Tracé 1268" class="cls-2" d="M65.618,320.2c0,.676,0,1.312-.005,1.948a.171.171,0,0,1-.085.125c-.526.24-1.052.476-1.628.731v-.7c0-.381.005-.766,0-1.147a.227.227,0,0,1,.16-.25c.466-.205.922-.431,1.387-.646A.874.874,0,0,1,65.618,320.2Z" transform="translate(-60.7 -304.068)"/>
    <path id="Tracé_1269" data-name="Tracé 1269" class="cls-2" d="M21.4,342.68c0-.651,0-1.262.005-1.873a.2.2,0,0,1,.08-.15c.521-.25,1.047-.5,1.608-.756.01.115.025.185.025.26,0,.526-.005,1.052.005,1.578a.275.275,0,0,1-.2.3c-.456.19-.9.4-1.352.6C21.53,342.655,21.485,342.66,21.4,342.68Z" transform="translate(-20.328 -322.782)"/>
    <path id="Tracé_1270" data-name="Tracé 1270" class="cls-2" d="M24.094,399.3c0,.686.005,1.317-.005,1.948a.212.212,0,0,1-.115.155c-.511.24-1.032.466-1.573.711a1.97,1.97,0,0,1-.025-.2c0-.541-.005-1.087.005-1.628,0-.075.035-.2.085-.22C22.987,399.811,23.513,399.57,24.094,399.3Z" transform="translate(-21.254 -379.207)"/>
    <path id="Tracé_1271" data-name="Tracé 1271" class="cls-2" d="M67.976,382.995c0-.671-.005-1.282,0-1.9a.237.237,0,0,1,.115-.18c.511-.24,1.027-.471,1.563-.716a.818.818,0,0,1,.035.165c0,.561,0,1.117-.005,1.678,0,.08-.045.21-.105.235C69.068,382.519,68.542,382.744,67.976,382.995Z" transform="translate(-64.571 -361.063)"/>
    <path id="Tracé_1272" data-name="Tracé 1272" class="cls-2" d="M20.6,273.3c0,.676,0,1.312-.005,1.948a.161.161,0,0,1-.075.13c-.526.24-1.052.476-1.623.731v-1.322c0-.721,0-.721.656-1.012.165-.075.331-.155.5-.23S20.387,273.4,20.6,273.3Z" transform="translate(-17.953 -259.517)"/>
    <path id="Tracé_1273" data-name="Tracé 1273" class="cls-2" d="M464.976,462.7c.21.075.381.13.551.19.531.19,1.067.376,1.593.581.075.03.18.135.18.205.015.526,0,1.052,0,1.578a.531.531,0,0,1-.035.11c-.731-.215-1.457-.421-2.179-.641a.19.19,0,0,1-.11-.13C464.971,463.977,464.976,463.356,464.976,462.7Z" transform="translate(-441.687 -439.431)"/>
    <path id="Tracé_1274" data-name="Tracé 1274" class="cls-2" d="M467.234,395.379c-.666-.2-1.282-.376-1.9-.556-.431-.125-.431-.13-.431-.591V392.7c.32.11.611.205.9.311.426.155.851.311,1.277.476.06.025.15.1.15.145C467.239,394.2,467.234,394.763,467.234,395.379Z" transform="translate(-441.616 -372.937)"/>
    <path id="Tracé_1275" data-name="Tracé 1275" class="cls-2" d="M525.59,412.254c-.2-.05-.371-.085-.536-.135-.546-.155-1.087-.316-1.628-.481-.06-.02-.145-.1-.145-.145-.01-.621-.005-1.242-.005-1.893.25.09.466.16.681.24.5.18.992.356,1.482.541.06.025.145.1.145.15C525.6,411.1,525.59,411.658,525.59,412.254Z" transform="translate(-497.067 -388.991)"/>
    <path id="Tracé_1276" data-name="Tracé 1276" class="cls-2" d="M525.5,482.644c-.331-.1-.621-.175-.911-.255-.416-.12-.826-.235-1.237-.366-.065-.02-.165-.105-.165-.16-.01-.611-.005-1.222-.005-1.863a1.924,1.924,0,0,1,.205.045c.636.225,1.272.461,1.913.681a.267.267,0,0,1,.21.3C525.49,481.548,525.5,482.073,525.5,482.644Z" transform="translate(-496.973 -455.865)"/>
  </g>
</svg>
