<svg xmlns="http://www.w3.org/2000/svg" viewBox="0 0 90 86.871"><defs><style>.a,.c{fill:#fff;}.b{fill:none;stroke:#fff;stroke-miterlimit:10;stroke-width:3px;}.c{font-size:8.5px;font-family:SegoeUI, Segoe UI;}</style></defs><g transform="translate(2864 -2480)"><path class="a" d="M463.322,203.24v.783a10.435,10.435,0,1,1-3.085-7.394l-3.867,3.833a4.951,4.951,0,1,0,.556,6.442H452.9v-3.674h10.422Z" transform="translate(-3256.318 2325.171)"/><path class="a" d="M343.8,290.7l12.089,9.832H343.8Z" transform="translate(-3168.811 2239.083)"/><path class="a" d="M310.089,203.432,298,193.6h12.089Z" transform="translate(-3128.205 2325.171)"/><path class="a" d="M153.7,193.5h16.433v5.444H164.6v15.424h-5.478V198.944H153.7Z" transform="translate(-3000.27 2325.26)"/><path class="b" d="M157.945,48.23V4.5H89.9V54.161" transform="translate(-2943.705 2492.826)"/><path class="b" d="M89.9,489.331v7.8h68.045V483.4" transform="translate(-2943.705 2068.237)"/><path class="a" d="M6.322,471.753c-.578.057-1.168-.25-1.213-.442A5.82,5.82,0,0,1,5.54,469.2c-.862,1.191-1.588,2.779-1.69,2.79a1.381,1.381,0,0,1-1-.408c-.136-.442.839-3.107,1.508-4.548-.181.011-.374.011-.556.011a15.56,15.56,0,0,0-1.769,4.389c-.193,1.179.238,1.225.215,1.361-.023.113-1.565.386-1.213-1.78a14.893,14.893,0,0,1,1.5-3.992,10.407,10.407,0,0,0-1.327.034c-.408.045-.692.17-.76.556-.045.295.136.261.023.352-.147.136-.533.057-.454-.476.147-.885.7-1.179,1.576-1.27.34-.034.862-.045,1.429-.057.068-.1.125-.17.147-.17a1.548,1.548,0,0,1,.624.147c.4-.023.771-.045,1.1-.079.692-.068,1.1-.227,1.123-.4.023-.1.091-.17.159-.17a.128.128,0,0,1,.136.159,1.454,1.454,0,0,1-.669,1.157,16.35,16.35,0,0,0-1.576,4.026,30.548,30.548,0,0,1,2.121-3.051.306.306,0,0,1,.091-.079c.249-.091.987.023.964.136a12.13,12.13,0,0,0-1.021,2.767c-.045.295-.045.476.091.465.363-.034,1.554-2.495,1.69-2.518C8.375,468.543,7.014,471.684,6.322,471.753Z" transform="translate(-2864.006 2084.115)"/><path class="a" d="M69.626,485.4a1.333,1.333,0,0,1-1.316-.612c-.442-1.123.862-3.516,2.041-3.629a.929.929,0,0,1,.964,1.157,1.651,1.651,0,0,1-1.6,1.327.781.781,0,0,1-.318-.034,3.39,3.39,0,0,0-.091.363c-.079.488.113.839.386.817,1.055-.1,1.826-2.62,2.234-2.665C72.166,482.1,71.111,485.256,69.626,485.4Zm-.125-2.064a2.092,2.092,0,0,0,1.282-1.281c.023-.147,0-.249-.079-.249C70.374,481.842,69.807,482.455,69.5,483.339Z" transform="translate(-2924.486 2070.225)"/><path class="a" d="M118.916,457.367c.544-.068.941.7.9.941-.068.4-1.191.919-1.179.839.011-.045.794-1.021.7-1.111-.125-.125-1.338.5-1.5,1.463a.464.464,0,0,0,.034.25,1.647,1.647,0,0,1,1.055.454c-.057.352-.147.125-.408.159-.919.091-2.257,1.69-2.37,2.393-.079.454.147.59.488.556,1.021-.1,2.733-1.985,2.8-2.416.136-.011.17.238.17.238-.057.363-1.781,2.79-2.847,2.892a1.478,1.478,0,0,1-1.656-1.52,4.9,4.9,0,0,1,2.211-2.631.9.9,0,0,1-.386-.839A2.784,2.784,0,0,1,118.916,457.367Z" transform="translate(-2966.041 2091.321)"/><path class="a" d="M170.971,440.218c-.136.011-1.316,2.472-1.69,2.518-.136.011-.136-.17-.091-.465a13.7,13.7,0,0,1,1.032-3.005c.306,0,.374.011.454,0,.374-.034.578-.624.465-.612-.068.011.068.034-.386.079l-.306.034a10.213,10.213,0,0,1,.737-1.3c.113-.1-.964-.329-1.111-.193a10.546,10.546,0,0,0-.839,1.61l-.261.023c-.272.023-.408.34-.272.329a3.265,3.265,0,0,1,.4.034c-.181.442-.352.907-.5,1.35.011-.1-.011-.159-.068-.147-.136.011-1.327,2.472-1.678,2.506-.136.011-.136-.17-.091-.465a11.582,11.582,0,0,1,1.021-2.767c.023-.113-.737-.227-.964-.136a21.009,21.009,0,0,0-2.2,3.119,12.168,12.168,0,0,1,1.043-2.778c.023-.125-.862-.25-1.021-.113a4.111,4.111,0,0,0-.6,1.145c0-.045-.011-.079-.023-.079-.42.045-1.191,2.563-2.234,2.665-.272.023-.465-.318-.386-.817a1.89,1.89,0,0,1,.091-.363.782.782,0,0,0,.318.034,1.65,1.65,0,0,0,1.6-1.327.934.934,0,0,0-.964-1.157,2.467,2.467,0,0,0-1.588,1.372c0-.057-.023-.091-.068-.091-.136.011-1.316,2.472-1.69,2.518-.136.011-.136-.17-.091-.465a11.43,11.43,0,0,1,1.077-2.779c.023-.125-.862-.25-1.021-.113a3.866,3.866,0,0,0-.567,1.1c0-.023-.011-.034-.023-.034-.42.045-1.191,2.563-2.245,2.665-.306.034-.454-.318-.374-.817.193-1.2.964-2.121,1.361-2.166s-.284.953-.113.941c.147-.011.737-.215.805-.59a.969.969,0,0,0-1.066-.987,2.417,2.417,0,0,0-1.565,1.327.058.058,0,0,0-.057-.045c-.136.011-1.316,2.472-1.69,2.518-.136.011-.136-.17-.091-.465a11.432,11.432,0,0,1,1.077-2.779c.023-.125-.862-.249-1.021-.113a3.82,3.82,0,0,0-.578,1.134.042.042,0,0,0-.034-.011c-.1,0-1.009,1.61-1.542,2.211-.283.306-.51.431-.567.42.284-1.214,1.849-4.922,2.563-5.489.113-.1-.964-.34-1.111-.2a11.955,11.955,0,0,0-1.735,3.436c.011-.091-.011-.136-.057-.136-.1,0-1.009,1.61-1.542,2.212-.284.306-.51.431-.567.42.283-1.214,1.849-4.922,2.563-5.489.113-.1-.964-.34-1.111-.2-.919.839-2.54,5.421-2.835,7a4.637,4.637,0,0,0-.113,1.463c.023.227.454.544.919.5.635-.068,1.418-2.484,1.077-2.881a4.82,4.82,0,0,0,.5-.544,9,9,0,0,0,.862-1.463,20.473,20.473,0,0,0-.783,2.688,4.638,4.638,0,0,0-.113,1.463.881.881,0,0,0,.919.5c.635-.068,1.418-2.484,1.077-2.881a4.82,4.82,0,0,0,.5-.544,8.155,8.155,0,0,0,.737-1.225,3.2,3.2,0,0,0-.181,1.213,1.358,1.358,0,0,0,1.213.442c.34-.034.839-.805,1.225-1.576a1.606,1.606,0,0,0,.091.748,1.3,1.3,0,0,0,1.3.612c.817-.079,1.508-1.089,1.928-1.962a3,3,0,0,0-.17,1.191,1.358,1.358,0,0,0,1.213.442c.34-.034.839-.794,1.213-1.565a1.544,1.544,0,0,0,.079.737,1.333,1.333,0,0,0,1.316.612c.794-.079,1.474-1.032,1.894-1.894a2.794,2.794,0,0,0-.181,1.168c.057.193.692.442.987.408.113-.011.839-1.6,1.7-2.79a5.821,5.821,0,0,0-.431,2.109,1.347,1.347,0,0,0,1.2.442c.408-.045,1.055-1.145,1.429-2.041a3.252,3.252,0,0,0-.2,1.361,1.358,1.358,0,0,0,1.213.442C169.984,443.325,171.356,440.184,170.971,440.218Zm-23.351,7.508c-.238-.023.261-2.2.624-2.245C148.527,445.457,147.983,447.725,147.62,447.725Zm2.45-.238c-.238-.023.261-2.2.624-2.245C150.977,445.219,150.444,447.487,150.07,447.487Zm12.679-6.9c.079-.011.1.1.079.25a2.092,2.092,0,0,1-1.281,1.281C161.853,441.238,162.431,440.626,162.749,440.592Z" transform="translate(-2994.156 2109.174)"/><path class="a" d="M215.791,450.94c.057-.318-.805-.34-.93-.227a3.5,3.5,0,0,0-.59,1.27c-.057.318.556.352.726.329A6.729,6.729,0,0,0,215.791,450.94Z" transform="translate(-3053.969 2097.272)"/><path class="a" d="M264.991,446.14c.057-.318-.805-.34-.93-.227a3.694,3.694,0,0,0-.59,1.27c-.057.318.556.352.726.329A8.11,8.11,0,0,0,264.991,446.14Z" transform="translate(-3097.589 2101.528)"/><path class="a" d="M379.359,432.653a21.855,21.855,0,0,0,2.268-5.069c.034-.272-.091-.363,0-.442.125-.113.919.261.851.817A25.647,25.647,0,0,1,379.246,434c-.34.034-1.361-.181-1.315-.522a19.5,19.5,0,0,1,.839-3.221c-1.032,1.792-1.894,3.935-2,3.947-.34.034-1.361-.193-1.315-.522.023-.1,1.588-4.809,1.2-5.171-.182-.17-1.61,1.259-1.781,2.631-.068.612.306.5.159.646s-1.1-.318-1-1.111a4.08,4.08,0,0,1,2.37-2.835c.669-.068,1.474.567,1.406,1.055-.147,1.27-1.077,3.969-.919,3.947.136-.011,1.849-3.9,2.54-5.092.17-.284,1.145.284,1.021.59A18.848,18.848,0,0,0,379.359,432.653Z" transform="translate(-3195.615 2118.133)"/><path class="a" d="M446.019,425.449c-.045-.193-.238-.533-1.009-.465-.5.045-1.247,1.565-1.69,2.563a16.85,16.85,0,0,1,1.894-4.185c.113-.1-.975-.329-1.123-.193a16.759,16.759,0,0,0-1.44,3.311c.011-.079,0-.113-.023-.113-.42.045-1.191,2.563-2.234,2.665-.272.023-.465-.318-.386-.805a1.883,1.883,0,0,1,.091-.363.781.781,0,0,0,.317.034,1.65,1.65,0,0,0,1.6-1.327.934.934,0,0,0-.964-1.157c-1.18.113-2.484,2.518-2.041,3.629a1.333,1.333,0,0,0,1.315.612c.862-.091,1.576-1.191,1.985-2.1a4.231,4.231,0,0,0-.295,1.384.866.866,0,0,0,.748.431,1.448,1.448,0,0,0,.284-.476,1.7,1.7,0,0,0,1.111.317C444.862,429.134,446.28,426.526,446.019,425.449Zm-4.65.59c.079-.011.1.1.079.25a2.093,2.093,0,0,1-1.282,1.282C440.484,426.7,441.051,426.072,441.369,426.038Zm2.121,2.54a.646.646,0,0,1-.295-.045c.386-.748,1.225-2.835,1.622-2.869.136-.011.136.181.091.465A3.767,3.767,0,0,1,443.49,428.579Z" transform="translate(-3253.145 2121.674)"/><path class="a" d="M517.118,418.369a45.225,45.225,0,0,1,3.028-3.969c.011.011.034.011.079.023.34-.034,1.032.261.919.352a22.6,22.6,0,0,0-1.508,3.629.035.035,0,0,0,.023.011c.2.068.057.726-.034.635a.788.788,0,0,0-.148-.057,7.516,7.516,0,0,0-.2.919c-.193,1.179.2,1.043.181,1.179-.023.159-1.588.567-1.236-1.6.034-.181.068-.386.125-.59-.25,0-.522,0-.794.023-1.157,1.6-2.3,3.028-3.073,3.107-.692.068-1-.59-.748-.612.079-.011.057.148.295.125.6-.057,1.588-1.179,2.62-2.529a2.883,2.883,0,0,0-1.746.68c-.215.193-.113.284-.238.295s-.2-.079-.159-.295C514.612,418.948,515.394,418.562,517.118,418.369ZM518,418.3a3.989,3.989,0,0,1,.522,0,13.99,13.99,0,0,1,.533-1.508C518.706,417.281,518.354,417.8,518,418.3Z" transform="translate(-3319.391 2129.412)"/><path class="a" d="M591.3,416.332c-.079.011-.658,1.145-1.145,1.894-.011.023-.045.057-.057.079a7.169,7.169,0,0,1-.533.635l.08-.317a16.233,16.233,0,0,1,1.134-2.971c.023-.125-.862-.25-1.021-.113a1.914,1.914,0,0,0-.363.6c-.25.533-1.395,2.926-1.7,2.949-.136.011-.136-.17-.091-.465a11.579,11.579,0,0,1,1.021-2.767c.023-.125-.862-.249-1.009-.113a3.525,3.525,0,0,0-.544,1.066c-.42.079-1.191,2.563-2.234,2.665-.306.034-.454-.318-.374-.817.193-1.2.964-2.121,1.361-2.166s-.284.953-.113.941c.147-.011.737-.216.805-.59a.969.969,0,0,0-1.066-.987,2.4,2.4,0,0,0-1.565,1.338c-.011-.034-.023-.057-.057-.057-.136.011-1.327,2.472-1.678,2.506-.136.011-.136-.17-.091-.465a11.579,11.579,0,0,1,1.021-2.767c.023-.113-.726-.227-.964-.136a20.209,20.209,0,0,0-2.2,3.119,12.168,12.168,0,0,1,1.043-2.779c.023-.125-.862-.249-1.021-.113a4.108,4.108,0,0,0-.6,1.145c0-.045-.011-.079-.023-.079-.42.045-1.191,2.563-2.234,2.665-.272.023-.465-.318-.386-.817a1.882,1.882,0,0,1,.091-.363.781.781,0,0,0,.318.034,1.651,1.651,0,0,0,1.6-1.327.934.934,0,0,0-.964-1.157,2.509,2.509,0,0,0-1.565,1.316c0-.068-.023-.113-.068-.1-.079.011-.658,1.145-1.146,1.894-.011.023-.045.057-.057.079a7.172,7.172,0,0,1-.533.635l.079-.318a16.245,16.245,0,0,1,1.134-2.971c.023-.125-.862-.25-1.021-.113a.784.784,0,0,0-.17.227c-.181-.2-.442-.261-.885-.215-1.236.125-2.064,1.905-2.268,3.13a1.6,1.6,0,0,0,0,.658c.045.193.386.522,1.157.442.227-.023.6-.544.964-1.179l-.148.533c-.034.125-.147.567-.306,1.055-.851.624-1.588,1.089-1.645,1.5-.068.431.6.828.851.805.941-.091,1.6-1.44,2.007-2.688a4.814,4.814,0,0,0,1.361-1.554,2.141,2.141,0,0,0,.113-.227,1.543,1.543,0,0,0,.08.737,1.333,1.333,0,0,0,1.315.612c.794-.079,1.463-1.032,1.883-1.894a2.792,2.792,0,0,0-.181,1.168c.057.193.692.442.987.408.113-.011.839-1.6,1.7-2.79a5.825,5.825,0,0,0-.431,2.109,1.348,1.348,0,0,0,1.2.442c.34-.034.851-.817,1.225-1.588a1.636,1.636,0,0,0,.091.76,1.281,1.281,0,0,0,1.3.612c.782-.079,1.452-1.009,1.883-1.871a2.98,2.98,0,0,0-.136,1.089,1.373,1.373,0,0,0,1.213.442c.227-.023.522-.454.817-1.021l-.113.386c-.034.125-.148.567-.306,1.055-.851.624-1.588,1.089-1.645,1.5-.068.431.51.828.851.805.941-.091,1.6-1.44,2.007-2.7a4.815,4.815,0,0,0,1.361-1.554C591.171,417.341,591.523,416.309,591.3,416.332ZM573.888,418.4c-.533.93-1.247,2.2-1.486,2.223-.136.011-.136-.17-.091-.465.181-1.111,1.1-2.608,1.565-2.654.136-.011.193.17.2.386Zm-1.928,5.047c-.1.011-.17-.113-.147-.227.045-.272.386-.567.862-.9C572.459,422.9,572.209,423.408,571.96,423.442Zm6.079-6.169c.091-.011.1.1.079.249a2.093,2.093,0,0,1-1.281,1.282C577.143,417.919,577.71,417.307,578.039,417.273Zm9.152,4.661c-.1.011-.17-.113-.148-.227.045-.272.386-.567.862-.9C587.689,421.4,587.44,421.911,587.191,421.934Z" transform="translate(-3370.422 2128.455)"/><path class="a" d="M764.453,398.129c-.215.023-.533-.1-.488-.363a.8.8,0,0,1,.544-.624c.238-.023.533.113.5.352A.682.682,0,0,1,764.453,398.129Zm2.858-6.045a23.529,23.529,0,0,0-2.075,4.48c-.045.284-.76.045-.726-.17a21.3,21.3,0,0,1,1.837-4.514C766.495,391.744,767.436,391.982,767.311,392.084Z" transform="translate(-3541.323 2149.414)"/><text class="c" transform="translate(-2856 2489)"><tspan x="0" y="0">PERFORMED BY</tspan></text></g></svg>