<svg xmlns="http://www.w3.org/2000/svg" viewBox="0 0 24 24">
  <defs>
    <style>
      .cls-1 {
        fill: #d7dde4;
      }
    </style>
  </defs>
  <path id="Tracé_1147" data-name="Tracé 1147" class="cls-1" d="M14.359-4.43V-6.852H11.993V-4.43Zm0,9.634V-2.007H11.993V5.2ZM4.7-9.3a11.558,11.558,0,0,1,8.479-3.521A11.558,11.558,0,0,1,21.655-9.3,11.558,11.558,0,0,1,25.176-.824a11.558,11.558,0,0,1-3.521,8.479,11.558,11.558,0,0,1-8.479,3.521A11.558,11.558,0,0,1,4.7,7.655,11.558,11.558,0,0,1,1.176-.824,11.558,11.558,0,0,1,4.7-9.3Z" transform="translate(-1.176 12.824)"/>
</svg>
